/* XPM */
static char *bitcoin32[] = {
/* columns rows colors chars-per-pixel */
"32 32 203 2 ",
"   c #06C002240000",
".  c #078702E70000",
"X  c #080903040000",
"o  c #08C403720000",
"O  c #093D03BA0000",
"+  c #173B0B27027F",
"@  c #173E0B2F0288",
"#  c #1DE60D7C01C1",
"$  c #1EEE0E6B025A",
"%  c #2B0C116E0000",
"&  c #282B12BA0249",
"*  c #1FE81A550BB7",
"=  c #21821B3B0E6A",
"-  c #2FF616BD0245",
";  c #350319910235",
":  c #350619A4023E",
">  c #37D21B4C0235",
",  c #39591C48023A",
"<  c #39FA1CB5023E",
"1  c #218B1B4B1084",
"2  c #21991B571094",
"3  c #21A71B6710A1",
"4  c #21B71B7D1230",
"5  c #21D01B8F1314",
"6  c #22031BAF135F",
"7  c #225D1BE213D8",
"8  c #22EE1C33142C",
"9  c #373522D207BC",
"0  c #5E35478A1EC6",
"q  c #659D4AC21DF2",
"w  c #65AC4AD41E0B",
"e  c #643A504A1B91",
"r  c #645D50661BB0",
"t  c #74E852221CCC",
"y  c #751052321CD0",
"u  c #544E4B4025CF",
"i  c #55F14C3B2E9F",
"p  c #562F4C652ED9",
"a  c #56304C8E3638",
"s  c #552D4C623B9C",
"d  c #55644C913BCE",
"f  c #54FC4C893F32",
"g  c #55494CAE4113",
"h  c #55884CC341E2",
"j  c #55C44CF041FB",
"k  c #561E4D18428A",
"l  c #56804D5142E7",
"z  c #56E74D7F4301",
"x  c #803455B70FE3",
"c  c #80A9561C0FE7",
"v  c #8EC761B61CF4",
"b  c #8F1061EB1D06",
"n  c #91F2673015AF",
"m  c #9235677415CA",
"M  c #9F1B75591992",
"N  c #9F2A75611997",
"B  c #9F3F75A319A3",
"V  c #A6077B4F238D",
"C  c #817C775A4211",
"Z  c #800576F34CB4",
"A  c #8031771A4CE4",
"S  c #8085775E55AC",
"D  c #80CF77975C6B",
"F  c #811977CF6139",
"G  c #814877F16456",
"H  c #817678136497",
"J  c #81967823668B",
"K  c #81BA783067BA",
"L  c #81DB78436844",
"P  c #9DA682773585",
"I  c #A9A18442208E",
"U  c #AA1284A420A9",
"Y  c #ABD0858A206B",
"T  c #AC4885F72061",
"R  c #AC5C86102071",
"E  c #B4B2904C23C2",
"W  c #A18B8DC6331E",
"Q  c #C27FA7822F43",
"!  c #CC9AB1D136F8",
"~  c #D11FB6A63216",
"^  c #D16FB6F73236",
"/  c #D1EFBA273D9A",
"(  c #D215BA533D9F",
")  c #E923D7E93E2D",
"_  c #ED01DDE73F72",
"`  c #FFCFF65D3A63",
"'  c #FF63F5CF3AED",
"]  c #FF8AF60F3B03",
"[  c #FFE6F6923A8F",
"{  c #FFB4F6763B43",
"}  c #FFE3F80C3B24",
"|  c #FFC8F7013D6F",
" . c #FFD3F7393EAE",
".. c #FFEFF8613EEA",
"X. c #FFF7F88D3B67",
"o. c #FFFFF93E3E8B",
"O. c #FFDFF8B93F06",
"+. c #947E884543A6",
"@. c #94B1886D43DD",
"#. c #95568975531E",
"$. c #BDF0B1FB5D66",
"%. c #942B894960C9",
"&. c #946A89876114",
"*. c #93BE897E6BB5",
"=. c #945989D4732E",
"-. c #953B8A2E77D1",
";. c #95E88A827A86",
":. c #96398AA17BEC",
">. c #96838ADE7C69",
",. c #96D68B167CE4",
"<. c #96B38AFE7D17",
"1. c #96FF8B407D44",
"2. c #BA0BB193742C",
"3. c #CE15BF964AC1",
"4. c #CE1ABF984AD3",
"5. c #D86DC6234BC5",
"6. c #D88FC64B4BCB",
"7. c #CF10C22B5DD2",
"8. c #CF2DC2425DD5",
"9. c #E741D8CD403B",
"0. c #EB90E00F4462",
"q. c #F935EF884A88",
"w. c #FD52F4A4435C",
"e. c #FD42F44844D4",
"r. c #FF3EF72344A0",
"t. c #FF80F75F44B1",
"y. c #FF41F74444C8",
"u. c #FFA1F79644DA",
"i. c #FFA2F80E4642",
"p. c #FFFFF9574054",
"a. c #FFFFFA44402C",
"s. c #FFFFFACC407B",
"d. c #FFFFF9384325",
"f. c #FFFFF9DE437C",
"g. c #FFFFF8CD4505",
"h. c #FFE6F9834569",
"j. c #FD9FF5D24AB0",
"k. c #FF90F8524A78",
"l. c #FFFFFC6F4C80",
"z. c #F1D4E8465840",
"x. c #FDF1F75451E5",
"c. c #FFFFFD9F5C30",
"v. c #FFFFFDFB5CF4",
"b. c #D20AC4A66CB5",
"n. c #D5D8C7647988",
"m. c #E7C1E0B07539",
"M. c #FEE7FCBD702C",
"N. c #FE8BFA9B750B",
"B. c #FA39F54A7E4A",
"V. c #FFFFFFD37E57",
"C. c #BA8BB2088727",
"Z. c #BAD1B255949E",
"A. c #BB10B29D9CCD",
"S. c #BB40B2C9A117",
"D. c #BB69B2F9A170",
"F. c #BB87B308A31D",
"G. c #BBCDB341A3C8",
"H. c #BC1CB377A492",
"J. c #BC68B3A5A51E",
"K. c #BC92B3C8A5A7",
"L. c #D8C0C93D8455",
"P. c #D8EDC96F8469",
"I. c #DADACA988CDA",
"U. c #DBF1CB4192FE",
"Y. c #DC1ACB6A930B",
"T. c #DC18CB679318",
"R. c #DCA9CBC896FC",
"E. c #DCE9CBF598F9",
"W. c #FA8EF6BE8D9C",
"Q. c #E73CE1F89635",
"!. c #FA86F8199A83",
"~. c #FFFFFE789B01",
"^. c #FFFFFE8F9B0B",
"/. c #FFFFFFFF9F0C",
"(. c #F967F7F3A3F8",
"). c #F99BF826AA27",
"_. c #F9A2F82DAA4C",
"`. c #F9FDF860AD58",
"'. c #E759E23DB2EC",
"]. c #E773E25DB30A",
"[. c #E771E264B315",
"{. c #FFFFFFFFBCC6",
"}. c #FFFFFF46BDF0",
"|. c #E77CE27BC77B",
" X c #E799E29AD373",
".X c #E7C0E2B5D90E",
"XX c #E7FEE2E4DAF6",
"oX c #E844E31FDB86",
"OX c #E87BE33BDBB7",
"+X c #FFFFFFFFD567",
"@X c #FFFFFF5BD9E3",
"#X c #FFFFFFFFE782",
"$X c #FFFFFF69EC59",
"%X c #FFFFFFFFF38F",
"&X c #FFFFFF70F69F",
"*X c #FFFFFF76FB4E",
"=X c #FFFFFFFFFB06",
"-X c #FFFFFF75FC7A",
";X c #FFFFFF7CFCC2",
":X c #FFFFFF89FCE4",
">X c #FFFFFFFFFF26",
",X c white",
"<X c None",
/* pixels */
"<X<X<X<X<X<X<X<X<X<X<X<X<X<X<X<X<X<X<X<X<X<X<X<X<X<X<X<X<X<X<X<X",
"<X<X<X<X<X<X<X<X<X<X<X} s.f.r.e.e.r.f.s.X.<X<X<X<X<X<X<X<X<X<X<X",
"<X<X<X<X<X<X<X<X<X| w._ ~ E N n n M E ~ _ w.| <X<X<X<X<X<X<X<X<X",
"<X<X<X<X<X<X<X' g.q.! V v t q 0 0 w y b V ! q.g.] <X<X<X<X<X<X<X",
"<X<X<X<X<X<X..l.v.M.B.W.!.(._.`.`._.(.!.W.B.M.v.l.O.<X<X<X<X<X<X",
"<X<X<X<X<Xp.0.3.7.b.n.L.I.U.R.E.E.R.U.I.L.n.b.7.3.0.p.<X<X<X<X<X",
"<X<X<X<X..) c # + $ & - ; > , < < , > ; - & $ @ # x ) O.<X<X<X<X",
"<X<X<X] k.( P C A S D F H J K L L L J H F D S A C P / k.{ <X<X<X",
"<X<X<Xh.c.V./.{.+X#X%X=X>X,X,X,X,X,X,X>X=X%X#X+X{./.V.c.h.<X<X<X",
"<X<Xo.9.W +.#.%.*.=.-.;.:.>.<.<.<.<.>.:.;.-.=.*.%.#.+.W 9.o.<X<X",
"<X<Xt.R %   X X . X X o O O O O O O O O o o X X X X   % Y y.<X<X",
"<X` j.6.$.2.C.Z.A.D.G.H.J.K.K.K.K.K.K.J.H.G.D.A.Z.C.2.$.5.j.[ <X",
"<X .x.N.~.}.@X$X&X*X-X;X:X:X:X:X:X:X:X:X;X-X*X&X$X@X}.^.N.x. .<X",
"<Xd.Q r u i a s f g h k k l l l l l l k k h g f s a i u e Q d.<X",
"<Xu.U 9 * = 3 4 6 7 7 8 8 8 8 8 8 8 8 8 8 7 7 6 4 3 = * 9 I t.<X",
"<Xi.z.m.Q.[.|. X.XXXXXoXoXOXOXOXOXOXoXoXoXXXXX.X X|.].Q.m.z.i.<X",
"<Xi.z.m.Q.'.|. X.XXXXXXXoXoXoXoXoXoXoXoXXXXXXX.X X|.'.Q.m.z.i.<X",
"<Xu.U 9 * = 1 4 5 6 7 7 7 8 8 8 8 8 8 7 7 7 6 5 4 2 = * 9 I t.<X",
"<Xd.Q r u p a d f g j k l l z z z z l l k j g f d a p u r Q d.<X",
"<X .x.N.^.}.@X$X&X*X;X;X:X:X:X:X:X:X:X:X;X;X*X&X$X@X}.^.N.x. .<X",
"<X` j.5.$.2.C.Z.A.S.F.G.H.J.K.K.K.K.J.H.G.F.S.A.Z.C.2.$.5.j.[ <X",
"<X<Xr.R %   X X X X X o O O O O O O O O o X X X X X   % T y.<X<X",
"<X<Xo.9.W @.#.&.*.=.-.;.>.,.1.1.1.1.,.>.;.-.=.*.&.#.@.W 9.o.<X<X",
"<X<X<Xh.c.V./.{.+X#X%X=X>X,X,X,X,X,X,X>X=X%X#X+X{./.V.c.h.<X<X<X",
"<X<X<X] k./ P C Z S D F G J K L L K J G F D S Z C P ( k.] <X<X<X",
"<X<X<X<X..) x # + $ & - : > , < < , > : - & $ + # c ) ..<X<X<X<X",
"<X<X<X<X<Xp.0.4.8.b.n.P.I.T.R.E.E.R.Y.I.P.n.b.8.4.0.p.<X<X<X<X<X",
"<X<X<X<X<X<XO.l.v.M.B.W.!.(.).`.`.).(.!.W.B.M.v.l.O.<X<X<X<X<X<X",
"<X<X<X<X<X<X<X] g.q.! V v t q 0 0 q t v V ! q.g.' <X<X<X<X<X<X<X",
"<X<X<X<X<X<X<X<X<X| w._ ~ E B m m B E ^ _ w.| <X<X<X<X<X<X<X<X<X",
"<X<X<X<X<X<X<X<X<X<X<X} a.f.r.e.e.r.f.a.} <X<X<X<X<X<X<X<X<X<X<X",
"<X<X<X<X<X<X<X<X<X<X<X<X<X<X<X<X<X<X<X<X<X<X<X<X<X<X<X<X<X<X<X<X"
};
