/* XPM */
static char *bitcoin16[] = {
/* columns rows colors chars-per-pixel */
"16 16 52 1 ",
"  c #69C65F09416B",
". c #733F64B74C3D",
"X c #787167B2515D",
"o c #742F6D9356E7",
"O c #7A3668C35352",
"+ c #75066E516176",
"@ c #75C46EBF6454",
"# c #76796F2E653F",
"$ c #96DE7B0D2D09",
"% c #8D8779AE364A",
"& c #821474AD4140",
"* c #B4BE97473285",
"= c #DF0ECAD33F76",
"- c #E030D42D3FB1",
"; c #EFC0E34C3CB1",
": c #EFC0E3613CD4",
"> c #EFCAE3663CC4",
", c #F1EDE341399D",
"< c #F92BED333B9C",
"1 c #F96AED993BD8",
"2 c #FCFBF2303E0C",
"3 c #881E81A55B0A",
"4 c #B64DA645416D",
"5 c #9F10989B6174",
"6 c #8983837B72E9",
"7 c #8993838C72FA",
"8 c #89C283BB7A9C",
"9 c #8A1E83F37BAA",
"0 c #8A5184177BDF",
"q c #8A9884407C15",
"w c #B3A6AD066F7F",
"e c #C4D0B68A4129",
"r c #C128B60749D4",
"t c #CD9BBF2F7C2C",
"y c #DF91D02041AB",
"u c #E022D4333FC5",
"i c #D56BCBA05743",
"p c #EE09E1264424",
"a c #FBB2F0C04078",
"s c #FD71F6FC46EF",
"d c #D08CC28E6C63",
"f c #A0939AC08238",
"g c #A06E9AE19049",
"h c #A0C29B109356",
"j c #A0F69B31939A",
"k c #A1449B5D93F9",
"l c #B399AE098E6F",
"z c #B3FEAE399E41",
"x c #B449AE65A433",
"c c #B467AE7DA5E7",
"v c #CBD5BF29852C",
"b c None",
/* pixels */
"bbbbbb1,,<bbbbbb",
"bbbbs=*$$*=sbbbb",
"bbb-idtvvtdiubbb",
"bbp% .XOOX. %pbb",
"b>rwlzxccxzlwr:b",
"by&o+@####@+o&yb",
"2e5fghjkkkhgf5e2",
"a43789qqqq08734a",
"a436890qq098634a",
"2e5fghkkkkhgf5e2",
"by&o+@####@+o&yb",
"b;rwlzxccxzlwr>b",
"bbp% .XOOX. %pbb",
"bbb-idtvvtdi-bbb",
"bbbbs=*$$*=sbbbb",
"bbbbbb<,,<bbbbbb"
};
