/* XPM */
static char *bitcoin64[] = {
/* columns rows colors chars-per-pixel */
"64 64 158 2 ",
"   c #011900130001",
".  c #0A0703EE0002",
"X  c #127507F0001C",
"o  c #1B9309A50000",
"O  c #1794070A0000",
"+  c #22790C030000",
"@  c #2230170803FA",
"#  c #2BBD11C60000",
"$  c #23DE180E05E7",
"%  c #2BF51F30069C",
"&  c #25DC192D096B",
"*  c #346815390000",
"=  c #393016650000",
"-  c #36D918F3000E",
";  c #2DE020880BA6",
":  c #3DB1237D035F",
">  c #2F1D216F10C3",
",  c #30CA225311FD",
"<  c #3F1E2DE6168D",
"1  c #3FA32E6817DA",
"2  c #44F81C480000",
"3  c #4AE81E7B0000",
"4  c #43FE2E8E0D82",
"5  c #48E32C2305AF",
"6  c #545223FF0000",
"7  c #590F26530000",
"8  c #5E0729B00000",
"9  c #596A36B8097D",
"0  c #42132E5A128E",
"q  c #414B2EFC1946",
"w  c #454B30EE1B3E",
"e  c #611C2BA50000",
"r  c #68622C520000",
"t  c #645A32C4032F",
"y  c #72DC336A0000",
"u  c #73BC3B3F02D8",
"i  c #7B773C570176",
"p  c #75DE403803C4",
"a  c #7D2268712DC1",
"s  c #81194BB206A7",
"d  c #80F942FE0375",
"f  c #8B94526A09B8",
"g  c #93DB603F0F2E",
"h  c #A0E370EA162C",
"j  c #83636B0D2AFD",
"k  c #9083745029DF",
"l  c #88BF74D832EE",
"z  c #8958759C3B66",
"x  c #A205777A22EA",
"c  c #A3257B0023A0",
"v  c #A1BA793427D7",
"b  c #89B476164302",
"n  c #8A4076B74C00",
"m  c #8B08778852B1",
"M  c #8C0578465694",
"N  c #8DEC798F5A8A",
"B  c #9E4486D92AF9",
"V  c #9AD486CC3633",
"C  c #B4A696BE2751",
"Z  c #B6E093822874",
"A  c #B9D6962528F1",
"S  c #BEBC9C7A2989",
"D  c #C49CA4D52C6A",
"F  c #C91DAB092E80",
"G  c #C922B49539A2",
"H  c #D460BAF4362A",
"J  c #D904C2F2380A",
"K  c #E02CCB553D4E",
"L  c #E292CEDA3EEF",
"P  c #FCADEEDD30AA",
"I  c #FF18F408348A",
"U  c #FFDAF70C3C28",
"Y  c #9C1D88724997",
"T  c #9B9287EF41DC",
"R  c #9CAE88F1531B",
"E  c #9CB689575BBF",
"W  c #AF9D980B411D",
"Q  c #B23F9BD14C53",
"!  c #B3A09CD9534A",
"~  c #B6AA9EAD5C0F",
"^  c #9BCF896B64EB",
"/  c #9BBA89AD6CE2",
"(  c #9D9B8ABE734D",
")  c #BA72A112639D",
"_  c #BE83A38F6B9B",
"`  c #C06FA4E26F83",
"'  c #C1DBA5D37375",
"]  c #E915D6A54184",
"[  c #EBFEDD3844FD",
"{  c #E0B2D11B51D7",
"}  c #E770D9DF52F4",
"|  c #E0FDD2F35CDE",
" . c #EEA2E0F54CAF",
".. c #F1EAE4F9483E",
"X. c #F57BEAAE4BBD",
"o. c #F89DEF044C56",
"O. c #FFFEF829410C",
"+. c #FFFFF8F04536",
"@. c #FCCAF56F4E63",
"#. c #FFFBFAD84C92",
"$. c #EF6DE2D45043",
"%. c #FDB4F7E84FE2",
"&. c #FFDAFA0351EE",
"*. c #FFCBFA955AC8",
"=. c #DE81D280679E",
"-. c #DF50D3BC778C",
";. c #E7B6DB9C6208",
":. c #E7FADCC87123",
">. c #F0D9E62C6406",
",. c #FFD8FCE563DC",
"<. c #FF91FBFE6B59",
"1. c #F101E7297189",
"2. c #F119E7FD7F80",
"3. c #FFBEFE367368",
"4. c #FFEEFE7A7CDB",
"5. c #DF89D4368691",
"6. c #DFB8D47A8FB4",
"7. c #DFE6D4BC97CA",
"8. c #E017D4E49F02",
"9. c #E828DD928092",
"0. c #E849DDF18F95",
"q. c #E85EDE3F9D9A",
"w. c #F12AE8AC8D67",
"e. c #FFF0FF0A836D",
"r. c #FFECFF138A9A",
"t. c #F13CE9029AB9",
"y. c #FFF5FF2592CB",
"u. c #FFFFFFC39B68",
"i. c #E036D4FFA4E8",
"p. c #E090D55BACB0",
"a. c #E5C6DB65A85E",
"s. c #E0F9D5BFB555",
"d. c #E888DEB3B400",
"f. c #E167D60FBC71",
"g. c #E89EDED6BC48",
"h. c #F154E92FA70F",
"j. c #FFFFFFD2A483",
"k. c #FFFFFFFEADB2",
"l. c #F16CE958B20C",
"z. c #F17EE96EBB88",
"x. c #FFFFFFFFB4A3",
"c. c #FFFFFFFFBCBA",
"v. c #E8C1DF01C4D4",
"b. c #E997DFBECEC3",
"n. c #EA28E03BD072",
"m. c #F1B2E9B4CC9D",
"M. c #F192E98AC37B",
"N. c #FFFFFFFFC4F3",
"B. c #FFFFFFFFCBDB",
"V. c #F1DBE9D2D563",
"C. c #F22FEA0DDC8E",
"Z. c #FFFFFFFFD397",
"A. c #FFFFFFFFDDC8",
"S. c #FFFFFFFFE62E",
"D. c #FFFFFFFFED6B",
"F. c #FFFFFFFFF4DC",
"G. c #FFFFFFFFFEFE",
"H. c None",
/* pixels */
"H.H.H.H.H.H.H.H.H.H.H.H.H.H.H.H.H.H.H.H.H.H.H.H.H.H.H.H.H.H.H.H.H.H.H.H.H.H.H.H.H.H.H.H.H.H.H.H.H.H.H.H.H.H.H.H.H.H.H.H.H.H.H.H.",
"H.H.H.H.H.H.H.H.H.H.H.H.H.H.H.H.H.H.H.H.H.H.H.H.H.H.H.H.H.I I I I I I H.H.H.H.H.H.H.H.H.H.H.H.H.H.H.H.H.H.H.H.H.H.H.H.H.H.H.H.H.",
"H.H.H.H.H.H.H.H.H.H.H.H.H.H.H.H.H.H.H.H.H.H.H.H.I I U U U +.U +.U +.U U U U I I H.H.H.H.H.H.H.H.H.H.H.H.H.H.H.H.H.H.H.H.H.H.H.H.",
"H.H.H.H.H.H.H.H.H.H.H.H.H.H.H.H.H.H.H.H.H.I U U +.+.+.#.#.#.&.&.#.&.#.#.#.+.+.+.U U I H.H.H.H.H.H.H.H.H.H.H.H.H.H.H.H.H.H.H.H.H.",
"H.H.H.H.H.H.H.H.H.H.H.H.H.H.H.H.H.H.I I U O.O.@.#.@...L H F A C C S D H L ..#.#.#.+.O.U U I H.H.H.H.H.H.H.H.H.H.H.H.H.H.H.H.H.H.",
"H.H.H.H.H.H.H.H.H.H.H.H.H.H.H.H.H.I U +.#.#.o.L S h f d i y y y y y y i d f h S L o.&.#.O.U I H.H.H.H.H.H.H.H.H.H.H.H.H.H.H.H.H.",
"H.H.H.H.H.H.H.H.H.H.H.H.H.H.H.I U +.#.@.] S g i y r 7 2 = # + o o + # = 2 7 r y i g S ] @.#.O.U I H.H.H.H.H.H.H.H.H.H.H.H.H.H.H.",
"H.H.H.H.H.H.H.H.H.H.H.H.H.P U O.+.#.&.] Z c x x v k j a a a a a a a a a a j k v c x c Z ] #.@.#.+.I H.H.H.H.H.H.H.H.H.H.H.H.H.H.",
"H.H.H.H.H.H.H.H.H.H.H.H.I U O.#.&.&.,.<.3.4.r.r.y.y.u.u.j.j.j.k.k.k.j.j.u.u.y.y.r.r.4.<.<.*.&.%.#.+.U I H.H.H.H.H.H.H.H.H.H.H.H.",
"H.H.H.H.H.H.H.H.H.H.H.I U +.#.%.&.<.3.4.r.y.u.u.j.k.x.x.x.c.x.c.x.c.x.x.x.x.k.j.j.y.y.r.e.3.<.*.&.#.+.U I H.H.H.H.H.H.H.H.H.H.H.",
"H.H.H.H.H.H.H.H.H.H.I U +.&.*.,.3.e.r.y.u.k.k.c.c.N.N.B.Z.Z.Z.Z.Z.Z.Z.B.B.B.N.x.x.x.j.u.y.r.e.3.,.*.&.+.U I H.H.H.H.H.H.H.H.H.H.",
"H.H.H.H.H.H.H.H.H.I U #.@.G W Q ! ! ~ ~ ~ ) ) _ _ _ ` ' ' ' ' ' ' ' ' ' ' _ ' ` _ ) ) ) ~ ~ ! ! ! C G @.#.U I H.H.H.H.H.H.H.H.H.",
"H.H.H.H.H.H.H.H.I U +.@.D t + O o + + # = 2 3 6 6 7 8 8 8 e e e e e e e 8 8 7 6 3 3 2 = # + + o X + t D %.+.U I H.H.H.H.H.H.H.H.",
"H.H.H.H.H.H.H.H.U +.&.F p e X         .     . . . . . . . . . . . . . . . . . . . . .     .       X 8 i D &.#.U H.H.H.H.H.H.H.H.",
"H.H.H.H.H.H.H.U O.&.J s u - @ $ @ @ @ @ & & & @ & & & & & & & & & & & & & & & & & & & @ @ @ @ @ $ $ : u s J #.+.U H.H.H.H.H.H.H.",
"H.H.H.H.H.H.I U #.&.} { ;.=.-.:.5.6.7.q.p.p.p.s.s.f.f.f.f.f.v.f.v.f.f.f.f.f.f.s.s.p.p.p.p.0.6.5.-.-.=.=.{  .#.#.+.I H.H.H.H.H.H.",
"H.H.H.H.H.H.U #.#.*.3.e.r.j.x.c.B.Z.A.D.D.F.F.G.G.G.G.G.G.G.G.G.G.G.G.G.G.G.G.G.F.F.F.D.S.A.Z.B.c.x.j.y.4.3.&.&.#.U H.H.H.H.H.H.",
"H.H.H.H.H.I O.#.&.<.4.r.u.k.x.B.Z.S.S.D.F.F.F.G.G.G.G.G.G.G.G.G.G.G.G.G.G.G.G.G.G.G.F.F.D.S.S.Z.B.x.k.u.r.4.<.&.#.+.I H.H.H.H.H.",
"H.H.H.H.I U #.o. .>.1.2.w.t.h.l.z.M.m.m.V.V.V.C.C.C.C.C.C.C.C.C.C.C.C.C.C.C.C.C.C.V.V.V.m.m.M.z.l.h.t.w.2.1.>.$.@.#.U I H.H.H.H.",
"H.H.H.H.I +.&.C 9 4 4 < 0 0 0 0 < < < q q q w q w w w w w w w w w w w w w w w w w q w q 1 1 < < < 0 0 0 < 4 4 9 C @.+.I H.H.H.H.",
"H.H.H.H.U #...f 6 .                                                                                         . 6 f [ #.U H.H.H.H.",
"H.H.H.I +.#.S y -                                                                                             - y S #.O.I H.H.H.",
"H.H.H.U +.#.D k k l l z b b n n m m m M M M M N N N N N N N N N N N N N N N N M N M M M m m m n n n b b z z l k c D #.#.U H.H.H.",
"H.H.H.U #.&.,.3.r.u.x.c.B.A.S.D.F.F.F.G.G.G.G.G.G.G.G.G.G.G.G.G.G.G.G.G.G.G.G.G.G.G.G.G.G.G.F.F.D.S.A.B.c.k.u.r.4.,.&.#.U H.H.H.",
"H.H.I +.#.&.3.e.y.j.x.B.Z.S.D.F.F.G.G.G.G.G.G.G.G.G.G.G.G.G.G.G.G.G.G.G.G.G.G.G.G.G.G.G.G.G.G.F.F.D.S.Z.B.x.j.y.4.<.&.&.+.I H.H.",
"H.H.I +.#.*.3.e.u.k.c.B.A.S.F.F.G.G.G.G.G.G.G.G.G.G.G.G.G.G.G.G.G.G.G.G.G.G.G.G.G.G.G.G.G.G.G.G.F.D.S.A.Z.c.k.u.r.3.*.#.+.I H.H.",
"H.H.U +.X.C B V V T Y R E E ^ ^ ^ / / ( ( ( ( ( ( ( ( ( ( ( ( ( ( ( ( ( ( ( ( ( ( ( ( ( ( / / / ^ ^ E E R Y T V V B C X.+.U H.H.",
"H.H.U #.L u =                                           .             .                             .             = u K #.U H.H.",
"H.H.U #.H i -                                                                                                     - i H #.U H.H.",
"H.I +.#.F p 5 ; ; ; ; ; ; ; ; ; > > > > > > , , , , , , , , , , , , , , , , , , , > > > > > > > > ; > ; ; ; ; ; ; 5 p F #.+.I H.",
"H.I U #.X.} ;.:.:.0.q.a.d.g.v.v.b.b.b.b.b.b.n.n.n.n.n.n.n.n.n.n.n.n.n.n.n.n.n.n.n.b.b.b.b.b.b.v.v.v.g.d.a.q.0.:.:.;.} X.#.U P H.",
"H.I +.#.*.3.e.u.x.N.Z.A.D.F.G.G.G.G.G.G.G.G.G.G.G.G.G.G.G.G.G.G.G.G.G.G.G.G.G.G.G.G.G.G.G.G.G.G.G.G.F.D.S.Z.N.k.u.e.3.*.#.+.I H.",
"H.I +.#.*.3.e.y.k.c.Z.A.D.F.G.G.G.G.G.G.G.G.G.G.G.G.G.G.G.G.G.G.G.G.G.G.G.G.G.G.G.G.G.G.G.G.G.G.G.F.F.D.A.Z.c.k.u.e.3.*.#.O.I H.",
"H.I U #.X.} ;.:.9.0.q.a.d.g.g.v.b.b.b.b.b.b.b.b.n.n.n.n.n.n.n.n.n.n.n.n.n.n.b.n.b.b.b.b.b.b.b.b.v.v.g.d.a.q.0.9.:.;.} X.#.O.I H.",
"H.I +.#.F p 5 ; ; ; ; ; ; ; > > ; > > > > > , , > , > , , , , , , , , , , > > > , > , , > > > > > > % ; ; ; % ; ; 5 p F #.O.P H.",
"H.H.U #.H i -                                                                                                     - i H #.U H.H.",
"H.H.U #.L u =                                                 .   .           .                         .         - u L #.U H.H.",
"H.H.U +.X.C B V V T Y R R E ^ / ^ ( / ( ( ( ( ( ( ( ( ( ( ( ( ( ( ( ( ( ( ( ( ( ( ( ( ( ( ( / ^ ^ ^ E E R Y Y V V B C X.#.U H.H.",
"H.H.I +.&.*.3.e.y.k.c.B.A.D.D.F.G.G.G.G.G.G.G.G.G.G.G.G.G.G.G.G.G.G.G.G.G.G.G.G.G.G.G.G.G.G.G.G.F.F.S.A.B.c.k.u.e.3.*.&.+.I H.H.",
"H.H.I +.&.&.3.e.y.k.x.B.Z.S.D.F.F.G.G.G.G.G.G.G.G.G.G.G.G.G.G.G.G.G.G.G.G.G.G.G.G.G.G.G.G.G.G.F.F.D.S.Z.B.x.j.y.e.<.&.#.+.I H.H.",
"H.H.H.U #.&.,.4.r.u.k.N.B.A.S.D.F.F.G.G.G.G.G.G.G.G.G.G.G.G.G.G.G.G.G.G.G.G.G.G.G.G.G.G.G.G.F.F.D.S.A.B.N.k.u.r.4.,.&.#.U H.H.H.",
"H.H.H.U +.#.D c k l l z z b n n n m m m m M M M N N N N N N N N N N N N N N N M M M M m m m m n n n b b z l l k c D #.+.U H.H.H.",
"H.H.H.I +.#.S y -                                                                                             - y S #.+.I H.H.H.",
"H.H.H.H.U #.[ f 6 .                                                                                         . 7 f [ #.U H.H.H.H.",
"H.H.H.H.I +.#.C 9 4 4 4 0 0 0 < < < 1 < q w w w q q w w w w q q w w w w w w w w w w q q q 1 1 < < 0 0 0 0 4 4 9 C #.+.I H.H.H.H.",
"H.H.H.H.I U #.o.$.>.1.w.w.t.h.l.z.M.m.V.V.V.V.C.C.C.C.C.C.C.C.C.C.C.C.C.C.C.C.C.C.V.V.V.m.m.M.z.l.h.t.w.2.1.>. .@.#.U I H.H.H.H.",
"H.H.H.H.H.I +.#.&.<.4.r.u.k.x.B.Z.A.S.D.F.F.G.G.G.G.G.G.G.G.G.G.G.G.G.G.G.G.G.G.G.F.F.F.D.S.A.Z.B.x.k.u.r.4.<.&.#.+.U H.H.H.H.H.",
"H.H.H.H.H.H.U #.&.&.3.e.y.j.x.c.B.Z.A.S.D.F.F.F.G.G.G.G.G.G.G.G.G.G.G.G.G.G.G.G.G.F.F.D.S.S.Z.B.c.k.j.y.e.3.*.%.+.U H.H.H.H.H.H.",
"H.H.H.H.H.H.I U #.&.[ { ;.=.-.-.5.6.7.8.i.i.i.s.s.f.f.f.f.f.f.v.f.f.f.f.f.f.s.f.s.p.p.p.8.7.6.5.-.-.=.| {  .&.#.O.I H.H.H.H.H.H.",
"H.H.H.H.H.H.H.U +.#.J s u - $ $ $ & $ $ & & & & & & & $ & & & & & & & & & & & & & $ @ @ $ $ $ $ $ $ : u s J #.+.U H.H.H.H.H.H.H.",
"H.H.H.H.H.H.H.H.U +.&.F i e X               . . . . . . . . . . . . . . . . . . . .   .           X 8 i F %.+.U H.H.H.H.H.H.H.H.",
"H.H.H.H.H.H.H.H.I U +.%.D t o O o + # # = 2 3 6 6 7 8 8 e e e e e r e 8 8 8 7 6 6 3 2 = * + + o X + t D &.+.U I H.H.H.H.H.H.H.H.",
"H.H.H.H.H.H.H.H.H.I U #.%.G W Q ! ! ~ ~ ) ) _ _ _ ' ' ' ' ' ' ' ' ' ' ' ` ` ` _ _ _ ) ) ~ ~ ! ! Q W G @.#.U I H.H.H.H.H.H.H.H.H.",
"H.H.H.H.H.H.H.H.H.H.I U #.&.*.,.3.4.r.y.u.k.k.x.x.N.B.B.B.B.Z.Z.Z.Z.Z.Z.B.N.N.c.x.k.k.u.y.r.e.3.,.*.&.+.U I H.H.H.H.H.H.H.H.H.H.",
"H.H.H.H.H.H.H.H.H.H.H.I U +.#.#.*.<.3.4.e.y.u.u.k.k.x.x.c.c.c.c.c.c.x.x.x.x.k.j.j.y.r.r.e.3.<.*.#.#.+.U I H.H.H.H.H.H.H.H.H.H.H.",
"H.H.H.H.H.H.H.H.H.H.H.H.I U O.#.%.%.,.<.3.4.e.e.r.y.u.u.j.j.j.j.j.k.j.j.u.u.y.y.r.e.4.3.<.*.%.#.#.+.U I H.H.H.H.H.H.H.H.H.H.H.H.",
"H.H.H.H.H.H.H.H.H.H.H.H.H.H.U U #.#.%.L A c k c v k a a a a a a a a a a j j k v c c x A L #.#.#.U U H.H.H.H.H.H.H.H.H.H.H.H.H.H.",
"H.H.H.H.H.H.H.H.H.H.H.H.H.H.H.I U +.#.@.[ S g i y r 7 6 - # + o o + # * 2 7 r y p g S [ @.#.+.U I H.H.H.H.H.H.H.H.H.H.H.H.H.H.H.",
"H.H.H.H.H.H.H.H.H.H.H.H.H.H.H.H.H.I U O.+.#.@.K S h f d u u y y y y u i d f h A L X.#.#.+.U I H.H.H.H.H.H.H.H.H.H.H.H.H.H.H.H.H.",
"H.H.H.H.H.H.H.H.H.H.H.H.H.H.H.H.H.H.I U U +.+.#.#.@...L H D S A C A F H L ..@.%.#.+.+.U I I H.H.H.H.H.H.H.H.H.H.H.H.H.H.H.H.H.H.",
"H.H.H.H.H.H.H.H.H.H.H.H.H.H.H.H.H.H.H.H.H.I U U O.+.#.#.#.&.&.#.&.#.&.#.#.+.+.O.U U I H.H.H.H.H.H.H.H.H.H.H.H.H.H.H.H.H.H.H.H.H.",
"H.H.H.H.H.H.H.H.H.H.H.H.H.H.H.H.H.H.H.H.H.H.H.H.I I I U U U O.O.O.+.U U U U I I P H.H.H.H.H.H.H.H.H.H.H.H.H.H.H.H.H.H.H.H.H.H.H.",
"H.H.H.H.H.H.H.H.H.H.H.H.H.H.H.H.H.H.H.H.H.H.H.H.H.H.H.H.H.P I I I I P H.H.H.H.H.H.H.H.H.H.H.H.H.H.H.H.H.H.H.H.H.H.H.H.H.H.H.H.H.",
"H.H.H.H.H.H.H.H.H.H.H.H.H.H.H.H.H.H.H.H.H.H.H.H.H.H.H.H.H.H.H.H.H.H.H.H.H.H.H.H.H.H.H.H.H.H.H.H.H.H.H.H.H.H.H.H.H.H.H.H.H.H.H.H."
};
